<?xml version="1.0" standalone="no"?>
<!DOCTYPE svg PUBLIC "-//W3C//DTD SVG 20010904//EN"
 "http://www.w3.org/TR/2001/REC-SVG-20010904/DTD/svg10.dtd">
<svg version="1.0" xmlns="http://www.w3.org/2000/svg"
 width="192.000000pt" height="192.000000pt" viewBox="0 0 192.000000 192.000000"
 preserveAspectRatio="xMidYMid meet">

<g transform="translate(0.000000,192.000000) scale(0.100000,-0.100000)"
fill="#000000" stroke="none">
<path d="M1115 1832 c-22 -15 -51 -33 -65 -40 -14 -6 -54 -30 -90 -51 -70 -43
-161 -95 -219 -125 -20 -10 -43 -25 -52 -32 -15 -14 -55 -37 -139 -81 -19 -10
-53 -30 -74 -45 -21 -16 -43 -28 -49 -28 -22 0 -119 -73 -128 -97 -10 -28 -11
-249 -1 -275 9 -21 64 -61 124 -88 25 -12 56 -32 68 -45 13 -14 27 -22 31 -19
5 3 9 64 9 135 l0 129 41 45 c23 25 47 45 54 45 6 0 31 13 56 28 85 55 268
162 275 162 5 0 24 11 43 24 20 13 72 44 117 70 101 58 114 82 114 201 0 120
-32 144 -115 87z"/>
<path d="M1530 1435 c-91 -55 -162 -97 -210 -122 -25 -13 -70 -39 -100 -58
-30 -18 -100 -59 -155 -90 -55 -31 -129 -74 -165 -95 -36 -22 -81 -47 -100
-56 -19 -9 -42 -22 -50 -29 -27 -24 -148 -84 -176 -88 -14 -2 -32 -10 -38 -18
-15 -20 -103 -82 -154 -108 -23 -12 -53 -33 -67 -48 -23 -26 -25 -34 -25 -129
0 -85 3 -106 19 -125 18 -22 20 -23 38 -7 10 9 29 21 43 27 14 6 54 29 90 51
36 21 90 53 120 70 65 36 128 72 207 119 32 18 78 45 103 58 25 14 52 31 60
38 8 7 31 20 50 29 19 9 64 34 100 56 36 22 79 46 95 54 17 8 43 24 59 35 17
11 47 23 69 26 21 4 41 13 43 20 6 16 104 83 154 106 20 9 48 31 63 48 25 30
27 39 27 124 0 88 -12 138 -35 143 -5 1 -35 -13 -65 -31z"/>
<path d="M1396 1009 c-3 -8 -6 -71 -8 -141 -3 -125 -3 -127 -33 -158 -16 -18
-55 -45 -85 -62 -30 -16 -77 -42 -105 -58 -27 -17 -70 -41 -95 -55 -25 -14
-74 -44 -110 -66 -36 -22 -84 -49 -107 -60 -23 -11 -45 -24 -49 -30 -3 -6 -22
-17 -40 -25 -47 -20 -74 -76 -74 -152 0 -86 9 -122 35 -134 24 -11 27 -10 145
63 36 22 79 46 95 53 17 8 41 23 55 33 14 10 39 25 55 33 17 8 41 22 55 31 35
23 216 130 261 154 52 28 126 71 179 103 53 34 58 47 58 187 0 55 -3 112 -7
127 -7 29 -66 77 -128 103 -21 9 -50 28 -65 42 -21 20 -29 23 -32 12z"/>
</g>
</svg>
