<?xml version="1.0" standalone="no"?>
<!DOCTYPE svg PUBLIC "-//W3C//DTD SVG 20010904//EN"
 "http://www.w3.org/TR/2001/REC-SVG-20010904/DTD/svg10.dtd">
<svg version="1.0" xmlns="http://www.w3.org/2000/svg"
 width="512.000000pt" height="512.000000pt" viewBox="0 0 512.000000 512.000000"
 preserveAspectRatio="xMidYMid meet">

<g transform="translate(0.000000,512.000000) scale(0.100000,-0.100000)"
fill="#000000" stroke="none">
<path d="M3039 4926 c-42 -22 -95 -57 -119 -76 -24 -19 -84 -54 -133 -77 -49
-24 -107 -58 -130 -77 -23 -18 -90 -57 -149 -85 -60 -28 -108 -55 -108 -60 0
-14 -105 -75 -191 -110 -42 -18 -87 -44 -101 -59 -13 -15 -76 -53 -139 -85
-62 -31 -129 -70 -147 -86 -19 -17 -53 -39 -78 -50 -24 -12 -65 -31 -90 -43
-26 -11 -61 -33 -78 -48 -40 -34 -127 -83 -193 -108 -28 -11 -73 -38 -100 -61
-26 -23 -93 -62 -148 -88 -55 -25 -117 -61 -139 -80 -21 -20 -62 -45 -90 -58
-80 -36 -101 -65 -121 -171 -14 -76 -16 -132 -12 -350 3 -142 8 -279 12 -304
9 -55 49 -101 121 -136 28 -14 62 -37 75 -51 13 -13 83 -53 154 -87 112 -54
138 -70 179 -118 52 -58 78 -65 91 -25 3 12 10 173 14 359 9 391 3 368 127
480 52 48 99 78 180 117 60 29 121 65 137 81 15 16 48 38 73 49 24 12 63 30
87 41 23 11 67 38 97 61 30 23 97 62 148 86 52 24 113 59 135 79 23 19 87 56
142 81 55 25 116 60 135 78 19 18 82 56 140 83 58 28 115 60 127 71 27 25 111
76 144 86 57 19 89 51 134 138 l45 88 0 237 c0 196 -3 241 -15 259 -13 19
-113 65 -133 62 -4 -1 -41 -20 -83 -43z"/>
<path d="M4208 3897 c-19 -18 -46 -37 -59 -44 -13 -6 -62 -30 -109 -52 -47
-23 -107 -59 -135 -81 -27 -22 -75 -49 -105 -61 -62 -23 -101 -46 -145 -85
-28 -24 -78 -50 -195 -102 -25 -11 -61 -34 -80 -52 -19 -18 -82 -55 -140 -83
-58 -27 -125 -67 -149 -88 -23 -21 -68 -48 -98 -59 -68 -25 -134 -62 -182
-100 -20 -16 -74 -47 -121 -68 -47 -22 -105 -56 -129 -76 -39 -32 -198 -116
-221 -116 -5 0 -32 -20 -60 -44 -29 -25 -69 -52 -89 -62 -138 -63 -171 -82
-212 -116 -25 -21 -73 -49 -108 -63 -67 -28 -94 -43 -151 -86 -36 -27 -105
-51 -200 -69 -80 -16 -100 -26 -100 -52 0 -25 -88 -97 -178 -146 -26 -14 -61
-38 -78 -54 -17 -16 -84 -55 -150 -87 -111 -54 -124 -64 -172 -123 -28 -36
-56 -76 -61 -90 -5 -14 -10 -127 -11 -252 -1 -213 1 -229 22 -278 23 -54 64
-108 81 -108 5 0 29 18 54 39 24 22 67 48 95 57 28 9 85 40 127 68 83 57 128
82 211 119 30 13 68 37 85 52 16 16 80 52 141 82 61 29 126 67 145 84 19 17
89 57 155 89 67 32 126 64 130 72 14 23 65 54 132 81 35 14 84 41 110 60 67
49 139 90 196 112 27 11 69 36 94 57 46 40 148 96 216 118 22 7 58 30 81 51
23 21 84 58 136 83 52 24 120 64 151 88 31 25 71 50 90 57 59 22 160 76 165
89 3 7 17 19 32 26 26 14 155 48 221 60 27 5 39 14 55 43 14 27 48 56 115 100
52 34 115 79 139 99 25 20 61 43 80 52 167 73 205 100 272 189 l39 52 0 244
c0 148 -4 257 -11 278 -17 54 -39 93 -64 111 -22 16 -24 16 -57 -15z"/>
<path d="M3738 2707 c-25 -20 -29 -55 -37 -392 -8 -361 -7 -356 -87 -422 -25
-21 -61 -53 -79 -71 -18 -17 -82 -55 -142 -84 -59 -28 -124 -66 -144 -83 -20
-18 -78 -53 -130 -78 -52 -24 -121 -66 -154 -91 -33 -25 -84 -55 -113 -66 -74
-28 -102 -44 -137 -76 -16 -15 -80 -51 -141 -80 -65 -32 -128 -70 -154 -94
-23 -22 -47 -40 -53 -40 -21 0 -192 -92 -226 -122 -19 -17 -67 -46 -106 -64
-92 -44 -100 -51 -125 -115 -12 -30 -29 -65 -38 -79 -14 -21 -17 -60 -19 -255
-1 -140 2 -241 9 -257 12 -31 36 -49 93 -67 38 -12 44 -11 115 25 41 20 96 55
121 78 25 22 70 50 99 60 30 11 88 43 129 71 80 54 152 94 212 119 20 8 55 30
77 50 22 20 93 62 158 93 65 30 127 66 137 79 10 13 64 45 120 72 57 27 134
72 173 99 38 27 90 58 116 67 26 9 62 28 80 41 104 74 149 101 212 128 39 16
88 45 108 63 21 18 88 58 150 88 63 29 128 67 146 84 18 17 61 44 95 60 34 17
72 40 83 53 41 46 54 147 54 433 0 143 -5 290 -10 325 -10 74 -27 96 -115 148
-33 20 -72 48 -86 63 -14 15 -51 37 -82 48 -118 44 -193 90 -244 146 -42 47
-52 54 -65 43z"/>
</g>
</svg>
