<?xml version="1.0" standalone="no"?>
<!DOCTYPE svg PUBLIC "-//W3C//DTD SVG 20010904//EN"
 "http://www.w3.org/TR/2001/REC-SVG-20010904/DTD/svg10.dtd">
<svg version="1.0" xmlns="http://www.w3.org/2000/svg"
 width="180.000000pt" height="180.000000pt" viewBox="0 0 180.000000 180.000000"
 preserveAspectRatio="xMidYMid meet">

<g transform="translate(0.000000,180.000000) scale(0.100000,-0.100000)"
fill="#000000" stroke="none">
<path d="M1055 1724 c-20 -13 -53 -33 -73 -45 -20 -11 -62 -35 -92 -54 -30
-19 -73 -44 -95 -56 -22 -11 -65 -36 -95 -54 -30 -19 -71 -42 -90 -53 -19 -10
-64 -36 -100 -57 -36 -21 -83 -48 -105 -60 -107 -57 -123 -72 -131 -120 -3
-25 -4 -89 -2 -142 5 -108 8 -113 113 -169 27 -15 60 -36 73 -48 34 -31 42
-10 42 124 l0 116 38 36 c20 20 55 45 77 57 22 12 63 35 90 51 51 30 116 67
189 108 22 12 66 38 96 57 30 19 70 42 88 50 54 26 72 67 72 166 0 58 -4 90
-12 96 -28 22 -48 21 -83 -3z"/>
<path d="M1475 1371 c-3 -5 -44 -31 -91 -58 -48 -26 -112 -63 -143 -80 -31
-18 -76 -44 -101 -58 -25 -14 -90 -52 -145 -85 -176 -103 -209 -122 -255 -147
-25 -13 -70 -39 -100 -58 -30 -18 -72 -37 -93 -40 -21 -4 -41 -13 -43 -20 -5
-13 -103 -79 -161 -109 -57 -29 -73 -63 -73 -160 0 -62 5 -94 16 -110 l15 -24
62 35 c34 20 80 46 102 59 42 25 92 53 190 109 61 34 122 70 200 115 24 14 65
38 91 53 27 16 72 41 99 57 28 17 71 41 97 55 26 13 49 29 53 34 3 6 26 13 51
17 25 3 48 13 51 21 6 15 103 82 165 114 52 27 68 62 68 154 0 93 -31 164 -55
126z"/>
<path d="M1306 934 c-3 -9 -6 -64 -6 -124 0 -103 -1 -110 -26 -140 -15 -17
-47 -42 -73 -56 -76 -41 -104 -57 -143 -82 -42 -27 -82 -50 -148 -84 -25 -13
-47 -26 -50 -29 -3 -4 -25 -18 -50 -32 -114 -62 -129 -73 -144 -105 -20 -40
-22 -192 -4 -210 18 -18 49 -14 88 10 94 59 148 91 175 104 17 8 55 30 85 48
30 19 97 59 148 88 51 29 114 65 140 80 26 15 67 39 92 52 96 54 124 79 133
121 5 22 7 85 4 139 -4 107 0 97 -73 155 -6 5 -30 17 -55 28 -24 11 -50 27
-58 36 -17 21 -27 21 -35 1z"/>
</g>
</svg>
