<?xml version="1.0" standalone="no"?>
<!DOCTYPE svg PUBLIC "-//W3C//DTD SVG 20010904//EN"
 "http://www.w3.org/TR/2001/REC-SVG-20010904/DTD/svg10.dtd">
<svg version="1.0" xmlns="http://www.w3.org/2000/svg"
 width="16.000000pt" height="16.000000pt" viewBox="0 0 16.000000 16.000000"
 preserveAspectRatio="xMidYMid meet">

<g transform="translate(0.000000,16.000000) scale(0.100000,-0.100000)"
fill="#000000" stroke="none">
<path d="M53 129 c-34 -22 -40 -33 -23 -44 6 -3 10 -2 10 4 0 6 13 17 30 26
17 9 30 20 30 25 0 15 -11 12 -47 -11z"/>
<path d="M73 88 c-45 -25 -67 -48 -48 -48 13 0 115 63 115 71 0 14 -11 10 -67
-23z"/>
<path d="M109 61 c-9 -9 -24 -21 -35 -27 -10 -7 -16 -15 -12 -19 8 -8 78 32
78 45 0 16 -15 17 -31 1z"/>
</g>
</svg>
