<?xml version="1.0" encoding="UTF-8"?>
<svg version="1.1" xmlns="http://www.w3.org/2000/svg" width="32" height="32">
<path d="M0 0 C0.33984375 2.765625 0.33984375 2.765625 0 6 C-2.37109375 8.046875 -2.37109375 8.046875 -5.4375 9.75 C-9.39676603 11.71336994 -9.39676603 11.71336994 -12 15 C-10.87980469 14.33871094 -9.75960938 13.67742188 -8.60546875 12.99609375 C-7.13312185 12.14269523 -5.66044852 11.28985972 -4.1875 10.4375 C-3.44951172 9.99986328 -2.71152344 9.56222656 -1.95117188 9.11132812 C-1.23896484 8.70205078 -0.52675781 8.29277344 0.20703125 7.87109375 C1.18893433 7.29766235 1.18893433 7.29766235 2.19067383 6.71264648 C4 6 4 6 7 7 C7.20086443 10.71599191 7.1519437 11.77208445 5 15 C5.99 16.485 5.99 16.485 7 18 C7.05078125 20.9140625 7.05078125 20.9140625 6 24 C3.68403 25.79165597 1.74414432 27.05428123 -0.8125 28.375 C-1.44220703 28.72949219 -2.07191406 29.08398438 -2.72070312 29.44921875 C-6.13796502 31.30666016 -8.03484503 32 -12 32 C-12.33984375 29.234375 -12.33984375 29.234375 -12 26 C-9.62890625 23.953125 -9.62890625 23.953125 -6.5625 22.25 C-2.60323397 20.28663006 -2.60323397 20.28663006 0 17 C-1.12019531 17.66128906 -2.24039062 18.32257812 -3.39453125 19.00390625 C-4.86687815 19.85730477 -6.33955148 20.71014028 -7.8125 21.5625 C-8.91948242 22.21895508 -8.91948242 22.21895508 -10.04882812 22.88867188 C-10.76103516 23.29794922 -11.47324219 23.70722656 -12.20703125 24.12890625 C-12.8616333 24.51119385 -13.51623535 24.89348145 -14.19067383 25.28735352 C-16 26 -16 26 -19 25 C-19.20086443 21.28400809 -19.1519437 20.22791555 -17 17 C-17.66 16.34 -18.32 15.68 -19 15 C-19.5234375 12.14453125 -19.5234375 12.14453125 -19 9 C-16.82708691 7.19740027 -15.06616933 5.99306208 -12.625 4.6875 C-12.02171875 4.34138672 -11.4184375 3.99527344 -10.796875 3.63867188 C-4.41324013 -0 -4.41324013 -0 0 0 Z " fill="#2E406B" transform="translate(22,0)"/>
</svg>
