<?xml version="1.0" standalone="no"?>
<!DOCTYPE svg PUBLIC "-//W3C//DTD SVG 20010904//EN"
 "http://www.w3.org/TR/2001/REC-SVG-20010904/DTD/svg10.dtd">
<svg version="1.0" xmlns="http://www.w3.org/2000/svg"
 width="32.000000pt" height="32.000000pt" viewBox="0 0 32.000000 32.000000"
 preserveAspectRatio="xMidYMid meet">

<g transform="translate(0.000000,32.000000) scale(0.100000,-0.100000)"
fill="#000000" stroke="none">
<path d="M123 268 c-63 -36 -73 -46 -73 -70 0 -17 7 -31 20 -38 18 -9 20 -8
20 15 0 19 11 32 48 55 26 16 51 31 55 33 5 1 7 13 5 25 -3 21 -5 21 -75 -20z"/>
<path d="M155 182 c-76 -44 -101 -63 -103 -81 -5 -30 2 -28 124 45 68 39 94
60 94 74 0 11 -3 20 -7 20 -5 0 -53 -26 -108 -58z"/>
<path d="M228 143 c-2 -21 -15 -34 -55 -57 -41 -23 -53 -36 -53 -54 l0 -23 58
32 c31 18 65 37 75 43 23 15 22 63 -2 76 -17 9 -20 6 -23 -17z"/>
</g>
</svg>
