<?xml version="1.0" standalone="no"?>
<!DOCTYPE svg PUBLIC "-//W3C//DTD SVG 20010904//EN"
 "http://www.w3.org/TR/2001/REC-SVG-20010904/DTD/svg10.dtd">
<svg version="1.0" xmlns="http://www.w3.org/2000/svg"
 width="32.000000pt" height="32.000000pt" viewBox="0 0 32.000000 32.000000"
 preserveAspectRatio="xMidYMid meet">

<g transform="translate(0.000000,32.000000) scale(0.100000,-0.100000)"
fill="#000000" stroke="none">
<path d="M118 268 c-59 -35 -68 -44 -68 -69 0 -18 7 -32 19 -39 17 -9 20 -6
23 17 2 21 15 34 56 57 39 23 52 36 52 53 0 13 -3 23 -7 22 -5 -1 -38 -19 -75
-41z"/>
<path d="M160 185 c-87 -51 -106 -66 -108 -88 -3 -26 -2 -25 99 33 118 68 122
71 117 97 -3 17 -15 13 -108 -42z"/>
<path d="M230 146 c0 -19 -12 -32 -55 -58 -42 -25 -55 -38 -55 -56 0 -23 1
-23 73 17 62 34 72 44 75 70 2 22 -2 33 -17 41 -19 9 -21 8 -21 -14z"/>
</g>
</svg>
